<?xml version="1.0" encoding="UTF-8"?>
<svg id="Layer_2" data-name="Layer 2" xmlns="http://www.w3.org/2000/svg" viewBox="0 0 796.92 156.74">
  <defs>
    <style>
      .cls-1 {
        fill: #f2941f;
      }

      .cls-2 {
        fill: #fff;
      }

      .cls-3 {
        fill: #f7931e;
      }

      .cls-4 {
        fill: #f5931f;
      }

      .cls-5 {
        fill: #1a649a;
      }
    </style>
  </defs>
  <g id="Layer_1-2" data-name="Layer 1">
    <g>
      <g>
        <rect class="cls-1" x="193.43" y="99.5" width="603.5" height="2"/>
        <rect class="cls-4" x="193.51" y="109.86" width="178.45" height="44"/>
        <g>
          <path class="cls-5" d="M214.82,77.42h-20.62V18.2h-19.47V.58h60.83v17.63h-20.74v59.21Z"/>
          <path class="cls-5" d="M255.61,64.17l-3.69,13.25h-21.43L253.53.58h31.22l23.39,76.84h-20.97l-4.03-13.25h-27.53ZM269.43,15.9l-9.45,33.41h19.12l-9.68-33.41Z"/>
          <path class="cls-5" d="M334.17,59.79h32.26v17.63h-52.88V.58h20.62v59.21Z"/>
          <path class="cls-5" d="M429.21,2.65c7.37,3.23,11.64,8.64,13.25,16.82.81,3.57,1.04,9.22,1.04,19.93,0,16.59-.81,21.89-4.49,27.65-5.07,8.06-13.82,10.94-32.6,10.94-11.98,0-17.97-1.04-22.93-4.15-5.99-3.69-9.22-8.53-10.71-16.01-.58-3.23-.81-7.14-.81-14.75,0-13.94.58-21.43,2.07-26.61,1.73-6.45,7.03-11.64,14.75-14.4,4.15-1.38,10.37-2.07,20.16-2.07,10.48,0,15.78.69,20.28,2.65ZM394.77,22.23c-1.27,2.53-1.61,6.34-1.61,17.74,0,19.01.92,20.28,14.98,20.28,8.41,0,11.06-1.15,12.79-5.53,1.15-3,1.5-6.45,1.5-16.59s-.23-13.02-1.38-15.78c-1.61-3.69-4.38-4.72-12.67-4.72-8.99,0-11.75.92-13.59,4.61Z"/>
          <path class="cls-5" d="M530.25,77.42h-34.91l-12.1-32.37c-1.61-4.49-3.34-8.99-4.95-13.36l-4.61-13.48h-.92l.35,7.14c.46,10.48.58,12.21.58,21.31v30.76h-20.16V.58h34.68l12.21,32.37c1.61,4.38,3.23,8.64,4.95,13.02,1.5,4.38,3,8.75,4.49,13.02h.81l-.23-6.91c-.46-10.14-.58-11.64-.58-20.74V.58h20.39v76.84Z"/>
          <path class="cls-5" d="M637.73,77.42h-20.28v-23.04c0-7.49.12-10.71,1.04-26.84l.46-8.99h-.69l-2.65,8.76-2.77,8.75-5.76,17.51-7.95,23.85h-17.63l-8.18-23.96-5.88-17.4c-1.38-4.49-3.23-10.37-5.53-17.51h-.69l.58,8.99c.92,16.13,1.15,20.39,1.15,26.84v23.04h-20.28V.58h32.14l7.14,22c2.42,7.37,3.46,10.83,5.3,17.05.81,3.11,1.61,6.22,2.54,9.22h.81l1.73-6.57c2.53-9.56,2.88-10.95,5.64-19.58l6.91-22.12h32.83v76.84Z"/>
          <path class="cls-5" d="M650.17.58h41.7c16.93,0,23.04,5.53,23.04,20.39,0,7.49-1.27,11.41-4.84,14.06-2.65,1.96-4.61,2.76-7.95,3.23v.35c10.6.92,14.05,5.3,14.05,18.2,0,15.44-5.99,20.62-23.85,20.62h-42.17V.58ZM683.81,31.33q6.91-.11,8.06-.81c1.84-.81,2.65-3,2.65-6.57,0-5.18-1.38-6.45-7.14-6.45h-16.59v13.82h13.02ZM684.5,60.48c8.87,0,11.17-1.5,11.17-7.14,0-4.61-.81-6.34-3.23-7.26q-.81-.34-6.57-.58h-15.09v14.98h13.71Z"/>
          <path class="cls-5" d="M744.06,64.17l-3.69,13.25h-21.43L741.99.58h31.22l23.39,76.84h-20.97l-4.03-13.25h-27.53ZM757.89,15.9l-9.45,33.41h19.12l-9.68-33.41Z"/>
        </g>
      </g>
      <g>
        <path class="cls-2" d="M229.6,131.49c.08,1.23.08,1.58.08,3.12,0,4.66-.15,5.89-.96,7.32-.69,1.23-1.77,2.08-3.31,2.5-1.12.35-3.27.5-6.7.5-3.62,0-5.12-.19-6.66-.81-2-.81-3.08-2.04-3.74-4.27-.38-1.23-.5-2.62-.5-5.55,0-7.2.04-7.86.46-9.86.62-2.81,2.16-4.51,4.7-5.2,1.16-.35,2.73-.46,5.97-.46,5.51,0,6.62.15,8.4,1.23.96.62,1.73,1.77,2,3.04.19,1,.27,1.73.27,3.54h-3.93c-.12-4.16-.62-4.47-7.09-4.47-4.04,0-5.47.42-6.16,1.93-.54,1.19-.65,2.62-.65,7.7,0,5.47.12,6.74.65,7.9.69,1.5,2.2,1.93,6.82,1.93,3.08,0,4.47-.19,5.31-.81.81-.54,1.19-2.2,1.19-4.97,0-.19,0-.69-.04-1.23h-7.28v-3.08h11.17Z"/>
        <path class="cls-2" d="M241,119.01h12.44c5.89,0,7.93,1.96,7.93,7.51,0,4.93-.96,6.39-4.54,7.05v.12c2.81.15,4.27,1.89,4.24,4.97v6.05h-3.97v-5.2c.08-3.04-1.27-4.31-4.35-4.2h-7.82v9.4h-3.93v-25.69ZM252.55,131.92c1.73,0,2.85-.23,3.58-.77,1-.69,1.27-1.54,1.27-3.77,0-3-.27-3.89-1.39-4.51-.58-.31-1.54-.46-2.81-.46h-8.28v9.51h7.63Z"/>
        <path class="cls-2" d="M290.45,119.63c2.23.96,3.47,2.85,3.93,5.97.19,1.16.23,2.35.23,5.78,0,5.16-.08,6.2-.46,8.09-.5,2.23-1.73,3.77-3.62,4.58-1.66.69-3.24.89-6.93.89-4.24,0-5.7-.19-7.39-.92-1.85-.81-3-2.31-3.5-4.51-.42-1.81-.5-2.81-.5-7.63,0-6.2.23-7.86,1.39-9.78.92-1.54,2.5-2.58,4.66-3,.92-.19,3.04-.31,5.31-.31,3.77,0,5.39.19,6.89.85ZM290.64,131.8v-3.58c0-2.81-.62-4.66-1.77-5.35-.96-.58-2.04-.69-5.89-.69-4.51,0-5.62.42-6.35,2.5-.42,1.27-.46,1.73-.46,7.2q0,4.78.19,6.08c.27,1.66.89,2.66,2,3.08.96.39,2,.5,5.08.5,3.5,0,4.66-.15,5.55-.81,1.04-.73,1.66-2.7,1.66-5.35v-3.58Z"/>
        <path class="cls-2" d="M327.04,119.01v17.52c0,3.12-.35,4.62-1.31,5.89-1.54,1.96-3.5,2.5-9.24,2.5-3.62,0-5.2-.19-6.59-.73-2.85-1.16-3.74-2.93-3.74-7.51v-17.68h3.93v17.68c0,1.77.15,2.73.5,3.31.65,1.16,2.12,1.54,5.82,1.54,5.97,0,6.7-.54,6.7-4.97v-17.56h3.93Z"/>
        <path class="cls-2" d="M339.4,119.01h10.55c4.51,0,5.43.15,6.93,1.19,1.66,1.19,2.39,3.39,2.39,7.32s-1.04,6.39-3.35,7.36c-1.23.54-1.39.58-6.05.66h-6.55v9.17h-3.93v-25.69ZM349.53,132.15c5.01,0,5.78-.65,5.78-4.7,0-3.04-.35-4.2-1.46-4.7-.69-.35-1.35-.42-3.62-.42h-6.89v9.82h6.2Z"/>
      </g>
      <g>
        <g>
          <path class="cls-5" d="M137.21,28.39H18.59C32.88,11.61,54.17.94,77.91.94s45.01,10.67,59.3,27.46Z"/>
          <path class="cls-3" d="M153.25,59.06v5.42h-42.7v85.09c-8.93,4.14-18.79,6.64-29.16,7.09V35.31h61.09c4.84,7.16,8.52,15.17,10.77,23.74Z"/>
          <path class="cls-5" d="M74.44,35.31v121.35c-10.37-.45-20.22-2.94-29.16-7.08v-85.1H2.58v-5.53c2.25-8.53,5.92-16.5,10.74-23.63h61.12Z"/>
        </g>
        <path class="cls-1" d="M153.25,59.06c-2.25-8.57-5.93-16.58-10.77-23.74-1.62-2.41-3.38-4.71-5.27-6.92C122.92,11.61,101.64.94,77.91.94S32.88,11.61,18.59,28.39c-1.89,2.21-3.65,4.51-5.27,6.92-4.82,7.13-8.49,15.1-10.74,23.63-1.69,6.35-2.58,13.02-2.58,19.9,0,31.31,18.57,58.36,45.28,70.73,8.94,4.14,18.79,6.63,29.16,7.08,1.14.06,2.3.08,3.46.08s2.33-.03,3.48-.08c10.37-.45,20.23-2.95,29.16-7.09,26.69-12.38,45.25-39.42,45.25-70.72,0-6.84-.88-13.47-2.55-19.79ZM110.55,147.82c-8.91,4.23-18.77,6.79-29.16,7.26-1.15.05-2.31.08-3.48.08s-2.31-.03-3.46-.08c-10.39-.46-20.25-3.01-29.16-7.25C19.48,135.57,1.59,109.26,1.59,78.84c0-4.91.46-9.71,1.36-14.37,2.05-10.67,6.31-20.56,12.31-29.16,1.68-2.42,3.49-4.72,5.44-6.92C34.69,12.54,55.15,2.53,77.91,2.53s43.21,10.01,57.2,25.86c1.94,2.2,3.76,4.5,5.44,6.92,6,8.6,10.27,18.49,12.31,29.16.89,4.66,1.36,9.46,1.36,14.37,0,30.41-17.88,56.72-43.67,68.97Z"/>
      </g>
    </g>
  </g>
</svg>